mastitorrents.com 
http://www.mastitorrents.com/forums/index.php


Format                           : Matroska
File size                        : 560 MiB
Duration                         : 2h 5mn
Overall bit rate                 : 625 Kbps

Sorce

Video :- English BRrip
Audio :- VCDrip

Video
ID                               : 2
Format                           : AVC
Format/Info                      : Advanced Video Codec
Format profile                   : High@L4.0
Format settings, CABAC           : Yes
Format settings, ReFrames        : 8 frames
Muxing mode                      : Container profile=Unknown@4.0
Codec ID                         : V_MPEG4/ISO/AVC
Duration                         : 2h 5mn
Bit rate                         : 565 Kbps
Width                            : 1 280 pixels
Height                           : 536 pixels
Display aspect ratio             : 2.35:1
Frame rate                       : 25.000 fps
Original frame rate              : 23.976 fps
Resolution                       : 8 bits
Colorimetry                      : 4:2:0
Scan type                        : Progressive
Bits/(Pixel*Frame)               : 0.033
Stream size                      : 506 MiB (90%)


Audio
ID                               : 1
Format                           : MPEG Audio
Format version                   : Version 2
Format profile                   : Layer 3
Mode                             : Joint stereo
Format_Settings_ModeExtension    : MS Stereo
Codec ID                         : A_MPEG/L3
Codec ID/Hint                    : MP3
Duration                         : 2h 5mn
Bit rate mode                    : Constant
Bit rate                         : 48.0 Kbps
Channel(s)                       : 2 channels
Sampling rate                    : 16.0 KHz
Video delay                      : 2s 800ms
Stream size                      : 43.0 MiB (8%)
Title                            : Hindi Audio
Writing library                  : LAME3.98 (beta)
Language                         : Hindi